name D:\PhD\Datasets\SharingData_IBEC_VALDUCE\DC_Healthy_0001.mot
datacolumns 46
datarows 5
range 5.01000000 5.05000000
endheader
                time	         pelvis_tilt	     pelvis_rotation	           pelvis_tx	           pelvis_ty	           pelvis_tz	       hip_flexion_r	     hip_adduction_r	      hip_rotation_r	        knee_angle_r	       ankle_angle_r	    subtalar_angle_r	         mtp_angle_r	       hip_flexion_l	     hip_adduction_l	      hip_rotation_l	        knee_angle_l	       ankle_angle_l	    subtalar_angle_l	         mtp_angle_l	    lumbar_extension	      lumbar_bending	     lumbar_rotation	          arm_flex_r	           arm_add_r	           arm_rot_r	        elbow_flex_r	           pro_sup_r	        wrist_flex_r	         wrist_dev_r	          arm_flex_l	           arm_add_l	           arm_rot_l	        elbow_flex_l	           pro_sup_l	        wrist_flex_l	         wrist_dev_l	          end_eff_tx	          end_eff_ty	          end_eff_tz	             goal_tx	             goal_ty	             goal_tz	            elbow_tx	            elbow_ty	            elbow_tz	
          5.01000000	          0.00000000	          0.00000000	        489.59774956	        425.71789775	        335.48686096	          0.00000000	          0.00000000	          0.00000000	          0.00000000	          0.00000000	          0.00000000	          0.00000000	          0.00000000	          0.00000000	          0.00000000	          0.00000000	          0.00000000	          0.00000000	          0.00000000	        -16.14106369	          0.86343241	          7.08654785	         59.32336426	        -30.47514725	         23.74901962	         34.82437897	         83.29685974	          0.00000000	          0.00000000	          0.00000000	          0.00000000	          0.00000000	          0.00000000	          0.00000000	          0.00000000	          0.00000000	       1111.47974735	        301.92835410	        538.83054766	       1085.31544273	        394.34231256	        525.50104396	        716.49862910	        328.32047328	        624.42970486	
          5.02000000	          0.00000000	          0.00000000	        490.18078253	        425.38561641	        335.15610642	          0.00000000	          0.00000000	          0.00000000	          0.00000000	          0.00000000	          0.00000000	          0.00000000	          0.00000000	          0.00000000	          0.00000000	          0.00000000	          0.00000000	          0.00000000	          0.00000000	        -16.17021370	          0.85106337	          7.17713308	         59.52571487	        -30.49704361	         23.89286613	         34.68408203	         83.32025146	          0.00000000	          0.00000000	          0.00000000	          0.00000000	          0.00000000	          0.00000000	          0.00000000	          0.00000000	          0.00000000	       1113.11712654	        301.92133015	        537.22651184	       1087.00746915	        394.28143568	        523.99849278	        718.36774324	        328.28996744	        623.53685616	
          5.03000000	          0.00000000	          0.00000000	        490.75720508	        425.10872799	        334.80951632	          0.00000000	          0.00000000	          0.00000000	          0.00000000	          0.00000000	          0.00000000	          0.00000000	          0.00000000	          0.00000000	          0.00000000	          0.00000000	          0.00000000	          0.00000000	          0.00000000	        -16.42593002	          0.91779655	          7.19087791	         59.96327591	        -30.47094917	         24.18096542	         34.62894821	         83.17715454	          0.00000000	          0.00000000	          0.00000000	          0.00000000	          0.00000000	          0.00000000	          0.00000000	          0.00000000	          0.00000000	       1114.83957118	        302.09022481	        535.69288542	       1088.63231946	        394.23460086	        522.55372912	        720.26578209	        328.28269974	        622.73341113	
          5.04000000	          0.00000000	          0.00000000	        491.34452750	        424.75545799	        334.41124359	          0.00000000	          0.00000000	          0.00000000	          0.00000000	          0.00000000	          0.00000000	          0.00000000	          0.00000000	          0.00000000	          0.00000000	          0.00000000	          0.00000000	          0.00000000	          0.00000000	        -16.69516182	          0.87071848	          7.25644684	         60.19700623	        -30.34729958	         24.59213829	         34.66010666	         83.13462067	          0.00000000	          0.00000000	          0.00000000	          0.00000000	          0.00000000	          0.00000000	          0.00000000	          0.00000000	          0.00000000	       1116.48882254	        302.06331944	        534.09970810	       1090.32501304	        394.29665007	        521.11662996	        722.01245347	        328.33608686	        621.79981989	
          5.05000000	          0.00000000	          0.00000000	        491.93077756	        424.49254552	        334.03496002	          0.00000000	          0.00000000	          0.00000000	          0.00000000	          0.00000000	          0.00000000	          0.00000000	          0.00000000	          0.00000000	          0.00000000	          0.00000000	          0.00000000	          0.00000000	          0.00000000	        -16.70784950	          0.87177444	          7.31082296	         60.38726807	        -30.32560349	         24.78106308	         34.55377197	         83.15576935	          0.00000000	          0.00000000	          0.00000000	          0.00000000	          0.00000000	          0.00000000	          0.00000000	          0.00000000	          0.00000000	       1118.03580106	        302.08625103	        532.55762172	       1091.99803554	        394.33266578	        519.68245905	        723.88551072	        328.40067866	        620.92301724	
